<svg width="105" height="77" viewBox="0 0 105 77" fill="none" xmlns="http://www.w3.org/2000/svg">
<path d="M65.5221 38.5012L102.89 73.603C103.626 72.4411 104.018 71.0924 104.022 69.7145V7.28557C104.018 5.90773 103.626 4.55915 102.89 3.39709L65.5221 38.5012Z" fill="white"/>
<path d="M8.98304 0C7.7643 0.0084729 6.56824 0.331983 5.50732 0.940481L50.0403 43.1758C50.7066 43.809 51.5854 44.1618 52.499 44.1618C53.4119 44.1618 54.2907 43.809 54.9577 43.1758L99.4926 0.940481C98.4317 0.331983 97.2358 0.0084593 96.0169 0H8.98304Z" fill="white"/>
<path d="M0.977905 69.7144C0.981727 71.0923 1.37379 72.4409 2.10981 73.603L39.4779 38.5L2.10981 3.39709C1.37381 4.55903 0.98174 5.90779 0.977905 7.28571V69.7144Z" fill="white"/>
<path d="M57.438 45.4753C56.0978 46.7492 54.3327 47.4584 52.4992 47.4584C50.665 47.4584 48.8999 46.7492 47.5596 45.4753L42.6133 40.7706L5.50732 76.0567C6.56822 76.667 7.76418 76.9915 8.98304 76.9999H96.0169C97.2356 76.9914 98.4317 76.667 99.4926 76.0567L62.3867 40.7646L57.438 45.4753Z" fill="white"/>
</svg>
