<svg width="54" height="54" viewBox="0 0 54 54" fill="none" xmlns="http://www.w3.org/2000/svg">
<path d="M15.3333 0.75C7.28042 0.75 0.75 7.28042 0.75 15.3333V38.6667C0.75 46.7196 7.28042 53.25 15.3333 53.25H38.6667C46.7196 53.25 53.25 46.7196 53.25 38.6667V15.3333C53.25 7.28042 46.7196 0.75 38.6667 0.75H15.3333ZM44.5 6.58333C46.11 6.58333 47.4167 7.89 47.4167 9.5C47.4167 11.11 46.11 12.4167 44.5 12.4167C42.89 12.4167 41.5833 11.11 41.5833 9.5C41.5833 7.89 42.89 6.58333 44.5 6.58333ZM27 12.4167C35.0529 12.4167 41.5833 18.9471 41.5833 27C41.5833 35.0529 35.0529 41.5833 27 41.5833C18.9471 41.5833 12.4167 35.0529 12.4167 27C12.4167 18.9471 18.9471 12.4167 27 12.4167ZM27 18.25C24.6794 18.25 22.4538 19.1719 20.8128 20.8128C19.1719 22.4538 18.25 24.6794 18.25 27C18.25 29.3206 19.1719 31.5462 20.8128 33.1872C22.4538 34.8281 24.6794 35.75 27 35.75C29.3206 35.75 31.5462 34.8281 33.1872 33.1872C34.8281 31.5462 35.75 29.3206 35.75 27C35.75 24.6794 34.8281 22.4538 33.1872 20.8128C31.5462 19.1719 29.3206 18.25 27 18.25Z" fill="white"/>
</svg>
