<svg width="54" height="54" viewBox="0 0 54 54" fill="none" xmlns="http://www.w3.org/2000/svg">
<path d="M47.4167 0.75H6.58333C3.36042 0.75 0.75 3.36042 0.75 6.58333V47.4167C0.75 50.6396 3.36042 53.25 6.58333 53.25H47.4167C50.6396 53.25 53.25 50.6396 53.25 47.4167V6.58333C53.25 3.36042 50.6396 0.75 47.4167 0.75ZM18.25 41.5833H10.8913V21.1667H18.25V41.5833ZM14.4408 17.4246C12.1921 17.4246 10.69 15.9254 10.69 13.9246C10.69 11.9238 12.1892 10.4246 14.6888 10.4246C16.9375 10.4246 18.4396 11.9238 18.4396 13.9246C18.4396 15.9254 16.9404 17.4246 14.4408 17.4246ZM44.5 41.5833H37.3775V30.4242C37.3775 27.3383 35.4788 26.6267 34.7671 26.6267C34.0554 26.6267 31.6812 27.1021 31.6812 30.4242C31.6812 30.8996 31.6812 41.5833 31.6812 41.5833H24.3225V21.1667H31.6812V24.0163C32.6292 22.3538 34.5279 21.1667 38.0892 21.1667C41.6504 21.1667 44.5 24.0163 44.5 30.4242V41.5833Z" fill="white"/>
</svg>
