<svg width="174" height="63" viewBox="0 0 174 63" fill="none" xmlns="http://www.w3.org/2000/svg">
<path d="M37.4046 10.7297V4.78568L34.9532 9.28565H34.1808L31.7125 4.78568V10.7297H30.4028V2.40137H31.8133L34.567 7.48902L37.3207 2.40137H38.7311V10.7297H37.4046Z" fill="#222221"/>
<path d="M44.2723 2.40137H42.9626V10.7297H44.2723V2.40137Z" fill="#222221"/>
<path d="M49.8131 4.83605V10.7297H48.5034V2.40137H49.578L54.2963 8.41252V2.40137H55.6228V10.7297H54.4642L49.8131 4.83605Z" fill="#222221"/>
<path d="M61.1471 2.40137H59.8374V10.7297H61.1471V2.40137Z" fill="#222221"/>
<path d="M70.3151 4.34908C70.1304 4.14759 69.8282 3.96289 69.3916 3.77819C68.9551 3.59349 68.5185 3.50954 68.0651 3.50954C67.5278 3.50954 67.1081 3.61028 66.8394 3.81177C66.5707 4.01327 66.4364 4.29871 66.4364 4.66811C66.4364 4.78565 66.4364 4.88639 66.4868 4.97035C66.5204 5.0543 66.554 5.13826 66.6043 5.20542C66.6547 5.27258 66.7219 5.33975 66.8226 5.40691C66.9234 5.47408 67.0073 5.52445 67.1081 5.57482C67.2088 5.62519 67.3263 5.67557 67.4942 5.72594C67.6622 5.77631 67.8133 5.82668 67.9476 5.86027C68.0819 5.89385 68.2666 5.94422 68.5017 5.99459C68.8711 6.07855 69.1901 6.1625 69.442 6.24646C69.7106 6.33041 69.9457 6.44795 70.1976 6.58228C70.4327 6.7166 70.6341 6.86772 70.7685 7.01884C70.9196 7.18675 71.0371 7.37145 71.1211 7.60652C71.205 7.8416 71.2554 8.11025 71.2554 8.41249C71.2554 8.74831 71.205 9.05054 71.1043 9.30241C71.0036 9.57106 70.8524 9.78934 70.6677 9.97404C70.483 10.1587 70.2648 10.3099 69.9961 10.4274C69.7442 10.5449 69.4588 10.6457 69.1565 10.6961C68.8543 10.7464 68.5353 10.78 68.1995 10.78C67.5614 10.78 66.9569 10.6793 66.3525 10.4946C65.7648 10.2931 65.2275 10.0244 64.7573 9.65502L65.3618 8.53002C65.5969 8.78189 65.9999 9.01696 66.5372 9.25203C67.0913 9.48711 67.6454 9.60464 68.2163 9.60464C68.7368 9.60464 69.1398 9.52069 69.4084 9.33599C69.6939 9.15129 69.8282 8.88263 69.8282 8.54681C69.8282 8.41249 69.8114 8.27816 69.761 8.17741C69.7274 8.05988 69.6435 7.95913 69.5427 7.87518C69.442 7.79122 69.3412 7.70727 69.2237 7.6401C69.1062 7.57294 68.9551 7.50578 68.7536 7.43861C68.5521 7.37145 68.3674 7.30429 68.1995 7.2707C68.0316 7.22033 67.8133 7.16996 67.5278 7.1028C67.0913 6.98526 66.7219 6.86772 66.4364 6.75019C66.151 6.63265 65.8991 6.48153 65.6808 6.31362C65.4625 6.14571 65.2946 5.94422 65.1939 5.70915C65.0931 5.47408 65.0428 5.18863 65.0428 4.8696C65.0428 4.46662 65.1267 4.11401 65.2778 3.77819C65.429 3.45917 65.6472 3.19051 65.9159 2.97223C66.1846 2.75395 66.5036 2.60283 66.873 2.48529C67.2424 2.36776 67.6454 2.31738 68.0651 2.31738C69.0894 2.31738 70.0297 2.63641 70.8692 3.25767L70.2815 4.33229L70.3151 4.34908Z" fill="#222221"/>
<path d="M81.0107 3.55994H78.2402V10.7297H76.9138V3.55994H74.1265V2.40137H81.0107V3.55994Z" fill="#222221"/>
<path d="M90.1789 9.57082V10.7294H84.47V2.4011H90.0781V3.55967H85.7797V5.92719H89.4905V7.0186H85.7797V9.57082H90.1789ZM87.8449 1.54476L86.9886 1.2929L87.6602 0H88.886L87.8282 1.54476H87.8449Z" fill="#222221"/>
<path d="M93.8894 10.7297V2.40137H97.5162C97.8856 2.40137 98.2215 2.48532 98.5573 2.63644C98.8763 2.78756 99.1618 3.00584 99.38 3.2577C99.5983 3.50957 99.783 3.8118 99.9006 4.13083C100.035 4.44986 100.102 4.78568 100.102 5.1215C100.102 5.69239 99.9509 6.19612 99.6487 6.64947C99.3465 7.10283 98.9603 7.40506 98.4733 7.57297L100.438 10.7465H98.9603L97.1468 7.84163H95.2159V10.7465H93.9062L93.8894 10.7297ZM95.1991 6.66626H97.4995C97.8689 6.66626 98.1711 6.51514 98.4062 6.21291C98.6412 5.91067 98.7588 5.54127 98.7588 5.10471C98.7588 4.66814 98.6245 4.31553 98.3558 4.0133C98.0871 3.71106 97.7849 3.55994 97.4323 3.55994H95.1991V6.66626Z" fill="#222221"/>
<path d="M105.29 2.40137H103.98V10.7297H105.29V2.40137Z" fill="#222221"/>
<path d="M109.001 6.56559C109.001 6.01149 109.102 5.49098 109.304 4.97046C109.505 4.44994 109.791 4.01337 110.143 3.62718C110.496 3.24099 110.916 2.93876 111.419 2.70368C111.923 2.46861 112.444 2.35107 113.014 2.35107C113.585 2.35107 114.139 2.46861 114.643 2.72047C115.147 2.97234 115.567 3.29137 115.903 3.67756C116.238 4.08054 116.507 4.53389 116.709 5.03762C116.893 5.54135 116.994 6.06187 116.994 6.58239C116.994 7.13649 116.893 7.657 116.692 8.17752C116.49 8.69804 116.205 9.13461 115.869 9.5208C115.516 9.90699 115.097 10.2092 114.593 10.4443C114.089 10.6794 113.569 10.7969 112.998 10.7969C112.528 10.7969 112.091 10.7297 111.671 10.5618C111.251 10.4107 110.882 10.1924 110.563 9.92378C110.244 9.65512 109.959 9.3361 109.74 8.98349C109.505 8.63088 109.32 8.24469 109.203 7.82491C109.085 7.40514 109.018 6.98537 109.018 6.56559M113.014 9.60475C113.417 9.60475 113.787 9.5208 114.139 9.3361C114.475 9.16819 114.761 8.93311 114.979 8.64767C115.197 8.36222 115.365 8.0432 115.483 7.6738C115.6 7.32119 115.667 6.95179 115.667 6.56559C115.667 6.1794 115.6 5.79321 115.483 5.42381C115.348 5.05441 115.181 4.73538 114.962 4.44994C114.744 4.16449 114.459 3.94621 114.123 3.7783C113.787 3.61039 113.417 3.52644 113.031 3.52644C112.645 3.52644 112.259 3.61039 111.906 3.79509C111.57 3.963 111.285 4.19808 111.067 4.48352C110.848 4.76897 110.681 5.08799 110.546 5.45739C110.429 5.81 110.362 6.1794 110.362 6.56559C110.362 7.08611 110.462 7.58984 110.681 8.0432C110.899 8.49655 111.201 8.88274 111.621 9.16819C112.041 9.45363 112.511 9.60475 113.031 9.60475" fill="#222221"/>
<path d="M125.943 10.7297V2.40137H128.899C129.553 2.40137 130.141 2.5189 130.662 2.72039C131.182 2.93868 131.619 3.22412 131.938 3.61031C132.274 3.99651 132.525 4.43307 132.693 4.92001C132.861 5.42373 132.962 5.96104 132.962 6.54873C132.962 7.80804 132.593 8.8155 131.854 9.58788C131.115 10.3435 130.124 10.7297 128.899 10.7297H125.943ZM128.899 3.55994H127.253V9.57109H128.899C129.469 9.57109 129.973 9.43676 130.376 9.16811C130.796 8.89945 131.098 8.54684 131.316 8.09349C131.518 7.64013 131.619 7.11962 131.619 6.54873C131.619 5.65881 131.384 4.9368 130.897 4.3827C130.41 3.8286 129.755 3.55994 128.899 3.55994Z" fill="#222221"/>
<path d="M136.169 6.56559C136.169 6.01149 136.27 5.49098 136.471 4.97046C136.673 4.44994 136.958 4.01337 137.311 3.62718C137.663 3.24099 138.083 2.93876 138.587 2.70368C139.091 2.46861 139.611 2.35107 140.182 2.35107C140.753 2.35107 141.307 2.46861 141.811 2.72047C142.314 2.97234 142.734 3.29137 143.07 3.67756C143.406 4.08054 143.674 4.53389 143.876 5.03762C144.077 5.54135 144.161 6.06187 144.161 6.58239C144.161 7.13649 144.061 7.657 143.859 8.17752C143.658 8.69804 143.372 9.13461 143.036 9.5208C142.684 9.90699 142.264 10.2092 141.76 10.4443C141.257 10.6794 140.736 10.7969 140.165 10.7969C139.695 10.7969 139.258 10.7297 138.839 10.5618C138.419 10.4107 138.05 10.1924 137.731 9.92378C137.411 9.65512 137.126 9.3361 136.908 8.98349C136.673 8.63088 136.488 8.24469 136.37 7.82491C136.253 7.40514 136.186 6.98537 136.186 6.56559M140.182 9.60475C140.585 9.60475 140.954 9.5208 141.307 9.3361C141.643 9.16819 141.928 8.93311 142.147 8.64767C142.365 8.36222 142.533 8.0432 142.65 7.6738C142.768 7.32119 142.835 6.95179 142.835 6.56559C142.835 6.1794 142.768 5.79321 142.65 5.42381C142.516 5.05441 142.348 4.73538 142.13 4.44994C141.911 4.16449 141.626 3.94621 141.29 3.7783C140.954 3.61039 140.585 3.52644 140.199 3.52644C139.813 3.52644 139.426 3.61039 139.074 3.79509C138.738 3.963 138.453 4.19808 138.234 4.48352C138.016 4.76897 137.848 5.08799 137.714 5.45739C137.596 5.81 137.529 6.1794 137.529 6.56559C137.529 7.08611 137.63 7.58984 137.848 8.0432C138.066 8.49655 138.369 8.88274 138.788 9.16819C139.208 9.45363 139.678 9.60475 140.199 9.60475" fill="#222221"/>
<path d="M11.9377 27.2013V18.9402H15.1112C15.7828 18.9402 16.3873 19.0409 16.9078 19.2592C17.4451 19.4775 17.8817 19.7629 18.2175 20.1491C18.5533 20.5185 18.822 20.9551 18.9899 21.4588C19.1746 21.9458 19.2585 22.4831 19.2585 23.0708C19.2585 24.3133 18.8723 25.3207 18.1167 26.0763C17.3612 26.8319 16.3537 27.2013 15.0944 27.2013H11.9209H11.9377ZM15.1112 20.9047H14.2045V25.22H15.1112C15.6989 25.22 16.1522 25.0185 16.4712 24.6155C16.8071 24.2125 16.975 23.692 16.975 23.054C16.975 22.4159 16.8071 21.8786 16.4712 21.4924C16.1354 21.1062 15.6821 20.9047 15.1112 20.9047Z" fill="#222221"/>
<path d="M28.4935 25.2202V27.2015H22.5999V18.9236H28.3927V20.9049H24.8834V22.0803H27.889V23.9105H24.8834V25.2202H28.4935Z" fill="#222221"/>
<path d="M36.8889 21.6268C36.8889 21.6268 36.8049 21.5765 36.7546 21.5429C36.7042 21.5093 36.5867 21.4421 36.402 21.3582C36.2341 21.2742 36.0494 21.1903 35.8982 21.1231C35.7303 21.0559 35.5456 21.0056 35.3106 20.9384C35.0923 20.888 34.8908 20.8545 34.7061 20.8545C34.2527 20.8545 34.0344 20.9888 34.0344 21.2574C34.0344 21.3246 34.0344 21.375 34.068 21.4253C34.0848 21.4757 34.1352 21.5261 34.1856 21.5597C34.2359 21.5933 34.2863 21.6436 34.3367 21.6604C34.3871 21.694 34.471 21.7276 34.5718 21.7612C34.6725 21.7947 34.7732 21.8283 34.8404 21.8451C34.9244 21.8619 35.0251 21.9123 35.193 21.9459C35.3441 21.9962 35.4785 22.0298 35.5792 22.0634C35.915 22.1641 36.2005 22.2649 36.4356 22.3656C36.6706 22.4664 36.8889 22.5839 37.124 22.7182C37.3423 22.8694 37.5102 23.0205 37.6445 23.1884C37.7788 23.3563 37.8796 23.5578 37.9635 23.8097C38.0475 24.0447 38.0811 24.3302 38.0811 24.6324C38.0811 25.0186 38.0139 25.3544 37.8964 25.6734C37.7788 25.9757 37.6109 26.2276 37.4094 26.429C37.2079 26.6305 36.9729 26.7816 36.7042 26.916C36.4188 27.0503 36.1501 27.1343 35.8479 27.1846C35.5624 27.235 35.2434 27.2686 34.9244 27.2686C34.3367 27.2686 33.7154 27.1846 33.0606 26.9999C32.4057 26.8152 31.8348 26.597 31.3479 26.2947L32.3218 24.2966C32.3218 24.2966 32.4057 24.3638 32.4729 24.3973C32.5401 24.4309 32.6744 24.5149 32.8759 24.6156C33.0774 24.7164 33.2789 24.8171 33.4803 24.8843C33.6818 24.9682 33.9169 25.0354 34.2024 25.1026C34.471 25.1697 34.7229 25.2033 34.9579 25.2033C35.3945 25.2033 35.6128 25.0858 35.6128 24.8507C35.6128 24.7499 35.5792 24.6828 35.5288 24.5988C35.4785 24.5317 35.3777 24.4645 35.2434 24.4141C35.1091 24.347 34.9747 24.2966 34.8572 24.263C34.7397 24.2294 34.555 24.1623 34.3367 24.0951C34.1016 24.0279 33.9169 23.9776 33.7658 23.9272C33.027 23.6753 32.4897 23.3731 32.1539 23.0205C31.818 22.6679 31.6669 22.1977 31.6669 21.61C31.6669 21.1735 31.7509 20.7705 31.9188 20.4011C32.0867 20.0485 32.3218 19.7463 32.6072 19.528C32.8927 19.2929 33.2117 19.125 33.5811 19.0075C33.9505 18.8899 34.3367 18.8228 34.7565 18.8228C35.6464 18.8228 36.6706 19.125 37.8628 19.7127L36.8889 21.5933V21.6268Z" fill="#222221"/>
<path d="M47.2826 25.2202V27.2015H41.4058V18.9236H47.1818V20.9049H43.6725V22.0803H46.6781V23.9105H43.6725V25.2202H47.2826Z" fill="#222221"/>
<path d="M52.9411 23.1381V27.2015H50.6743V18.9236H52.4374L55.762 23.1381V18.9236H58.0287V27.2015H56.2321L52.9411 23.1381Z" fill="#222221"/>
<path d="M63.3852 18.9236L64.9972 24.5821L66.5923 18.9236H68.9766L66.1221 27.2015H63.8722L60.9841 18.9236H63.3852Z" fill="#222221"/>
<path d="M71.1589 23.054C71.1589 22.5167 71.2597 21.9794 71.478 21.4757C71.6795 20.972 71.9817 20.5186 72.3511 20.1492C72.7205 19.763 73.1738 19.4608 73.6944 19.2257C74.2317 18.9906 74.7858 18.8899 75.3902 18.8899C75.9947 18.8899 76.5656 19.0074 77.1029 19.2425C77.6402 19.4776 78.0768 19.7966 78.4294 20.1996C78.782 20.6026 79.0675 21.0391 79.269 21.5429C79.4704 22.0466 79.5712 22.5671 79.5712 23.0876C79.5712 23.6081 79.4704 24.1455 79.2522 24.6492C79.0507 25.1529 78.7484 25.5895 78.379 25.9757C78.0096 26.3619 77.5731 26.6641 77.0358 26.8992C76.4984 27.1342 75.9444 27.2518 75.3399 27.2518C74.7354 27.2518 74.1645 27.1342 73.6272 26.8992C73.1067 26.6641 72.6533 26.3451 72.3007 25.9421C71.9481 25.5559 71.6627 25.1025 71.4612 24.582C71.2597 24.0783 71.1589 23.5578 71.1589 23.0373M75.3567 25.2369C75.6757 25.2369 75.9443 25.1697 76.1962 25.0522C76.4481 24.9178 76.6328 24.7499 76.7839 24.5484C76.935 24.3302 77.0358 24.0951 77.1197 23.8432C77.2037 23.5914 77.2373 23.3227 77.2373 23.0373C77.2373 22.6511 77.1701 22.2984 77.0358 21.9794C76.9014 21.6604 76.6832 21.3917 76.3977 21.1902C76.0955 20.9888 75.7597 20.888 75.3399 20.888C75.0208 20.888 74.7354 20.9552 74.5003 21.0727C74.2485 21.1902 74.0638 21.3582 73.9126 21.5764C73.7615 21.7779 73.644 22.013 73.5768 22.2649C73.5097 22.5167 73.4593 22.7854 73.4593 23.0708C73.4593 23.3563 73.5097 23.6249 73.5768 23.8768C73.6608 24.1287 73.7615 24.3637 73.9126 24.5652C74.0638 24.7667 74.2653 24.9346 74.5171 25.0522C74.769 25.1697 75.0376 25.2369 75.3567 25.2369Z" fill="#222221"/>
<path d="M82.8459 27.2015V18.9236H85.1127V25.2202H88.8739V27.2015H82.8459Z" fill="#222221"/>
<path d="M92.6347 18.9236L94.2467 24.5821L95.8418 18.9236H98.2429L95.3885 27.2015H93.1217L90.2336 18.9236H92.6347Z" fill="#222221"/>
<path d="M103.465 18.9236H101.198V27.1847H103.465V18.9236Z" fill="#222221"/>
<path d="M113.472 27.2015V22.8359L112.079 25.9086H110.87L109.476 22.8359V27.2015H107.209V18.9236H109.694L111.474 22.8191L113.271 18.9236H115.739V27.2015H113.472Z" fill="#222221"/>
<path d="M125.377 25.2202V27.2015H119.483V18.9236H125.276V20.9049H121.75V22.0803H124.756V23.9105H121.75V25.2202H125.377Z" fill="#222221"/>
<path d="M131.036 23.1381V27.2015H128.769V18.9236H130.532L133.857 23.1381V18.9236H136.123V27.2015H134.327L131.036 23.1381Z" fill="#222221"/>
<path d="M146.315 20.9049H143.931V27.2015H141.664V20.9049H139.28V18.9236H146.315V20.9049Z" fill="#222221"/>
<path d="M148.884 23.054C148.884 22.5167 148.985 21.9794 149.203 21.4757C149.405 20.972 149.707 20.5186 150.076 20.1492C150.446 19.763 150.899 19.4608 151.42 19.2257C151.957 18.9906 152.511 18.8899 153.116 18.8899C153.72 18.8899 154.291 19.0074 154.828 19.2425C155.366 19.4776 155.802 19.7966 156.155 20.1996C156.507 20.6026 156.793 21.0391 156.994 21.5429C157.196 22.0466 157.297 22.5671 157.297 23.0876C157.297 23.6081 157.196 24.1455 156.977 24.6492C156.776 25.1529 156.474 25.5895 156.104 25.9757C155.735 26.3619 155.298 26.6641 154.761 26.8992C154.224 27.1342 153.67 27.2518 153.065 27.2518C152.461 27.2518 151.89 27.1342 151.353 26.8992C150.832 26.6641 150.379 26.3451 150.026 25.9421C149.673 25.5559 149.388 25.1025 149.187 24.582C148.985 24.0783 148.884 23.5578 148.884 23.0373M153.082 25.2369C153.401 25.2369 153.67 25.1697 153.922 25.0522C154.173 24.9178 154.358 24.7499 154.509 24.5484C154.66 24.3302 154.761 24.0951 154.845 23.8432C154.929 23.5914 154.963 23.3227 154.963 23.0373C154.963 22.6511 154.895 22.2984 154.761 21.9794C154.627 21.6604 154.408 21.3917 154.123 21.1902C153.821 20.9888 153.485 20.888 153.065 20.888C152.746 20.888 152.478 20.9552 152.226 21.0727C151.974 21.1902 151.789 21.3582 151.638 21.5764C151.487 21.7779 151.369 22.013 151.302 22.2649C151.235 22.5167 151.185 22.7854 151.185 23.0708C151.185 23.3563 151.235 23.6249 151.302 23.8768C151.386 24.1287 151.487 24.3637 151.638 24.5652C151.789 24.7667 151.991 24.9346 152.242 25.0522C152.494 25.1697 152.763 25.2369 153.082 25.2369Z" fill="#222221"/>
<path d="M160.672 29.0317L161.108 27.2015H160.437V25.0522H162.267V27.2015L161.629 29.0317H160.672Z" fill="#222221"/>
<path d="M2.65344 35.5132H0.369873V43.8415H2.65344V35.5132Z" fill="#222221"/>
<path d="M8.71496 39.7445V43.8415H6.4314V35.5132H8.21123L11.5694 39.7445V35.5132H13.853V43.8415H12.0396L8.71496 39.7445Z" fill="#222221"/>
<path d="M17.6309 43.8415V35.5132H20.8379C21.5096 35.5132 22.114 35.6139 22.6513 35.8322C23.1887 36.0505 23.6252 36.3527 23.9778 36.7221C24.3136 37.1083 24.5823 37.5449 24.767 38.0318C24.9517 38.5355 25.0357 39.0729 25.0357 39.6437C25.0357 40.9031 24.6495 41.9105 23.8939 42.6829C23.1215 43.4385 22.114 43.8247 20.8379 43.8247H17.6309V43.8415ZM20.8379 37.4945H19.9144V41.8434H20.8379C21.4256 41.8434 21.879 41.6419 22.2148 41.2389C22.5506 40.8359 22.7185 40.3154 22.7185 39.6605C22.7185 39.0057 22.5506 38.4852 22.2148 38.0822C21.879 37.696 21.4256 37.4945 20.8379 37.4945Z" fill="#222221"/>
<path d="M32.0204 43.9087C31.4999 43.9087 31.0298 43.8415 30.61 43.6904C30.1902 43.5393 29.8376 43.3546 29.5354 43.1027C29.2499 42.8508 28.9981 42.5486 28.8134 42.196C28.6287 41.8434 28.4776 41.474 28.3936 41.071C28.3096 40.668 28.2593 40.2483 28.2593 39.7949V35.5132H30.5596V39.7949C30.5596 40.0803 30.5932 40.349 30.6436 40.5841C30.694 40.8359 30.7779 41.0542 30.8955 41.2557C31.013 41.4572 31.1641 41.6083 31.3488 41.7259C31.5335 41.8266 31.7686 41.8938 32.0204 41.8938C32.2723 41.8938 32.5074 41.8266 32.7089 41.7259C32.9104 41.6083 33.0615 41.4572 33.1622 41.2557C33.2798 41.0542 33.3637 40.8359 33.4141 40.5841C33.4645 40.349 33.498 40.0803 33.498 39.7949V35.5132H35.7816V39.7949C35.7816 40.3826 35.6977 40.9367 35.5465 41.4236C35.3954 41.9106 35.1603 42.3471 34.8581 42.7165C34.5559 43.0859 34.1697 43.3882 33.6827 43.5896C33.1958 43.7911 32.6417 43.9087 32.0037 43.9087M32.7089 35.1606L31.2984 34.7912L31.8861 33.1289H33.8674L32.7089 35.1774V35.1606Z" fill="#222221"/>
<path d="M44.4961 38.233C44.4961 38.233 44.4122 38.1826 44.3618 38.149C44.3114 38.1154 44.1939 38.0483 44.0092 37.9643C43.8413 37.8804 43.6566 37.7964 43.4887 37.7293C43.3207 37.6621 43.1193 37.5949 42.901 37.5446C42.6827 37.4942 42.4812 37.4606 42.2797 37.4606C41.8263 37.4606 41.6081 37.5949 41.6081 37.8636C41.6081 37.9307 41.6081 37.9811 41.6416 38.0315C41.6584 38.0819 41.692 38.1322 41.7592 38.1658C41.8096 38.1994 41.8599 38.2498 41.9103 38.2834C41.9607 38.3169 42.0446 38.3505 42.1454 38.3841C42.2461 38.4177 42.3469 38.4513 42.414 38.4681C42.498 38.4849 42.5987 38.5184 42.7666 38.5688C42.9178 38.6192 43.0521 38.6528 43.1528 38.6863C43.4887 38.7871 43.7741 38.8878 44.0092 38.9886C44.2442 39.0893 44.4793 39.2069 44.6976 39.358C44.9159 39.4923 45.1006 39.6602 45.2349 39.8281C45.3692 39.996 45.47 40.2143 45.5539 40.4494C45.6379 40.6845 45.6715 40.9699 45.6715 41.2721C45.6715 41.6583 45.6043 42.0109 45.4868 42.3132C45.3692 42.6154 45.2013 42.8673 44.9998 43.0688C44.7983 43.2703 44.5633 43.4382 44.2778 43.5557C43.9924 43.69 43.7069 43.774 43.4215 43.8244C43.136 43.8747 42.817 43.9083 42.498 43.9083C41.8935 43.9083 41.2722 43.8244 40.6174 43.6397C39.9626 43.455 39.3749 43.2199 38.8879 42.9344L39.8786 40.9195C39.8786 40.9195 39.9793 40.9867 40.0297 41.0203C40.0969 41.0539 40.2312 41.1378 40.4495 41.2386C40.651 41.3393 40.8693 41.4401 41.0708 41.524C41.2722 41.608 41.5073 41.6751 41.7928 41.7423C42.0614 41.8095 42.3301 41.843 42.5651 41.843C43.0017 41.843 43.2368 41.7255 43.2368 41.4736C43.2368 41.3897 43.2032 41.3057 43.1528 41.2386C43.0857 41.1714 43.0017 41.1042 42.8674 41.0371C42.7331 40.9699 42.5987 40.9195 42.4812 40.8859C42.3637 40.8524 42.179 40.802 41.9607 40.718C41.7256 40.6509 41.5409 40.6005 41.3898 40.5501C40.6342 40.2983 40.0969 39.996 39.7779 39.6434C39.442 39.2908 39.2741 38.8207 39.2741 38.2162C39.2741 37.7628 39.3581 37.3599 39.526 37.0072C39.6939 36.6378 39.929 36.3524 40.2144 36.1173C40.4999 35.8823 40.8357 35.7143 41.2051 35.5968C41.5745 35.4793 41.9607 35.4121 42.3805 35.4121C43.2704 35.4121 44.3114 35.7143 45.5036 36.302L44.5129 38.1994L44.4961 38.233Z" fill="#222221"/>
<path d="M55.5108 37.5113H53.1265V43.8415H50.8261V37.5113H48.425V35.5132H55.5108V37.5113Z" fill="#222221"/>
<path d="M58.6846 43.8415V35.5132H62.5129C62.8991 35.5132 63.2853 35.5971 63.6379 35.765C63.9905 35.933 64.2927 36.1512 64.5278 36.4199C64.7629 36.6885 64.9644 37.0076 65.0987 37.3434C65.233 37.6792 65.317 38.0318 65.317 38.4012C65.317 38.8882 65.2162 39.3247 64.998 39.7445C64.7965 40.1643 64.4942 40.5001 64.1248 40.7687L65.8879 43.8415H63.386L61.9252 41.2893H61.0017V43.8415H58.7182H58.6846ZM60.9681 39.2911H62.4122C62.5633 39.2911 62.6976 39.2072 62.8151 39.0393C62.9327 38.8714 62.983 38.6699 62.983 38.4012C62.983 38.1326 62.9159 37.9143 62.7816 37.7464C62.6472 37.5785 62.4961 37.4945 62.345 37.4945H60.9681V39.2743V39.2911Z" fill="#222221"/>
<path d="M71.244 35.5132H68.9604V43.8415H71.244V35.5132Z" fill="#222221"/>
<path d="M76.953 35.5132H79.5052L82.1581 43.8415H79.841L79.3373 42.2128H77.1209L76.6171 43.8415H74.2832L76.953 35.5132ZM78.9679 40.6848L78.2291 37.7464L77.4567 40.6848H78.9679Z" fill="#222221"/>
<path d="M85.3149 45.6881L85.7346 43.8411H85.063V41.675H86.91V43.8411L86.2719 45.6881H85.3149Z" fill="#222221"/>
<path d="M99.3525 35.4623C100.142 35.4623 100.83 35.6302 101.418 35.9492C102.022 36.2683 102.459 36.7216 102.761 37.2757L101.015 38.5182C100.931 38.3167 100.83 38.1488 100.713 38.0145C100.578 37.8802 100.427 37.7626 100.276 37.6955C100.125 37.6283 99.957 37.5612 99.8058 37.5276C99.6547 37.494 99.4868 37.4772 99.3189 37.4772C98.9999 37.4772 98.7312 37.5444 98.4794 37.6619C98.2275 37.7962 98.0428 37.9641 97.8917 38.1656C97.7406 38.3671 97.623 38.6022 97.5559 38.8541C97.4719 39.1059 97.4383 39.3746 97.4383 39.6432C97.4383 40.2477 97.6062 40.7682 97.9588 41.2048C98.3114 41.6414 98.7648 41.8596 99.3525 41.8596C99.5708 41.8596 99.7891 41.8261 99.9905 41.7589C100.192 41.6917 100.394 41.591 100.578 41.4231C100.763 41.2552 100.914 41.0705 100.998 40.8354L102.862 41.9436C102.711 42.3298 102.425 42.6824 102.039 42.9846C101.653 43.2869 101.216 43.5051 100.729 43.6563C100.259 43.8074 99.7723 43.8745 99.2853 43.8745C98.6976 43.8745 98.1267 43.757 97.5894 43.5051C97.0521 43.2533 96.6156 42.9343 96.2462 42.5313C95.8768 42.1283 95.6081 41.6749 95.3898 41.1544C95.1715 40.6339 95.0708 40.1134 95.0708 39.5761C95.0708 39.0388 95.1715 38.5686 95.373 38.0649C95.5745 37.5779 95.8432 37.1246 96.1958 36.7384C96.5484 36.3522 97.0018 36.0332 97.5391 35.7813C98.0764 35.5462 98.6808 35.4287 99.3189 35.4287" fill="#222221"/>
<path d="M105.414 39.6606C105.414 39.1233 105.514 38.586 105.733 38.0823C105.951 37.5785 106.236 37.1252 106.606 36.739C106.975 36.3528 107.429 36.0506 107.966 35.8155C108.503 35.5804 109.057 35.4629 109.662 35.4629C110.266 35.4629 110.854 35.5804 111.374 35.8323C111.912 36.0674 112.348 36.4032 112.718 36.7894C113.07 37.1924 113.356 37.6457 113.557 38.1494C113.759 38.6532 113.86 39.1737 113.86 39.711C113.86 40.2483 113.759 40.7856 113.541 41.2893C113.322 41.7931 113.037 42.2464 112.667 42.6326C112.298 43.0188 111.845 43.3378 111.307 43.5561C110.77 43.7912 110.199 43.9087 109.595 43.9087C108.99 43.9087 108.419 43.7912 107.882 43.5393C107.345 43.3042 106.908 42.9852 106.539 42.5822C106.169 42.1793 105.901 41.7259 105.682 41.2222C105.481 40.7184 105.38 40.1811 105.38 39.6606M109.611 41.877C109.93 41.877 110.216 41.8099 110.468 41.6923C110.72 41.558 110.921 41.3901 111.072 41.1886C111.223 40.9703 111.341 40.7352 111.408 40.4834C111.492 40.2315 111.526 39.9629 111.526 39.6774C111.526 39.2912 111.458 38.9386 111.324 38.6196C111.19 38.3006 110.972 38.0319 110.669 37.8304C110.367 37.6289 110.014 37.5114 109.611 37.5114C109.292 37.5114 109.007 37.5785 108.772 37.6961C108.52 37.8136 108.319 37.9815 108.184 38.1998C108.033 38.4181 107.916 38.6364 107.848 38.905C107.764 39.1569 107.731 39.4255 107.731 39.711C107.731 39.9964 107.764 40.2651 107.848 40.5337C107.932 40.7856 108.05 41.0207 108.201 41.239C108.352 41.4405 108.554 41.6084 108.805 41.7259C109.057 41.8434 109.326 41.9106 109.645 41.9106" fill="#222221"/>
<path d="M123.497 43.8415V39.459L122.087 42.5486H120.878L119.484 39.459V43.8415H117.184V35.5132H119.686L121.482 39.4255L123.296 35.5132H125.781V43.8415H123.497Z" fill="#222221"/>
<path d="M135.486 41.8433V43.8415H129.559V35.5132H135.385V37.5113H131.842V38.6866H134.865V40.5336H131.842V41.8433H135.486ZM133.253 35.1438L131.842 34.7744L132.43 33.1121H134.411L133.253 35.1606V35.1438Z" fill="#222221"/>
<path d="M138.912 43.8415V35.5132H142.74C143.126 35.5132 143.512 35.5971 143.865 35.765C144.218 35.933 144.52 36.1512 144.755 36.4199C144.99 36.6885 145.191 37.0076 145.326 37.3434C145.46 37.6792 145.544 38.0318 145.544 38.4012C145.544 38.8882 145.443 39.3247 145.225 39.7445C145.024 40.1643 144.721 40.5001 144.352 40.7687L146.115 43.8415H143.613L142.152 41.2893H141.229V43.8415H138.945H138.912ZM141.195 39.2911H142.639C142.79 39.2911 142.925 39.2072 143.042 39.0393C143.16 38.8714 143.21 38.6699 143.21 38.4012C143.21 38.1326 143.143 37.9143 143.009 37.7464C142.874 37.5785 142.723 37.4945 142.572 37.4945H141.195V39.2743V39.2911Z" fill="#222221"/>
<path d="M152.865 35.4623C153.654 35.4623 154.342 35.6302 154.93 35.9492C155.535 36.2683 155.971 36.7216 156.273 37.2757L154.527 38.5182C154.443 38.3167 154.342 38.1488 154.225 38.0145C154.09 37.8802 153.939 37.7626 153.788 37.6955C153.637 37.6283 153.469 37.5612 153.318 37.5276C153.167 37.494 152.999 37.4772 152.831 37.4772C152.512 37.4772 152.243 37.5444 151.992 37.6619C151.74 37.7962 151.555 37.9641 151.404 38.1656C151.253 38.3671 151.152 38.6022 151.068 38.8541C150.984 39.1059 150.951 39.3746 150.951 39.6432C150.951 40.2477 151.118 40.7682 151.471 41.2048C151.824 41.6414 152.277 41.8596 152.865 41.8596C153.083 41.8596 153.301 41.8261 153.52 41.7589C153.721 41.6917 153.923 41.591 154.107 41.4231C154.292 41.2552 154.443 41.0705 154.527 40.8354L156.391 41.9436C156.24 42.3298 155.954 42.6824 155.568 42.9846C155.182 43.2869 154.745 43.5051 154.258 43.6563C153.788 43.8074 153.301 43.8745 152.814 43.8745C152.227 43.8745 151.656 43.757 151.118 43.5051C150.581 43.2533 150.145 42.9343 149.775 42.5313C149.406 42.1283 149.137 41.6749 148.919 41.1544C148.717 40.6339 148.6 40.1134 148.6 39.5761C148.6 39.0388 148.701 38.5686 148.902 38.0649C149.104 37.5779 149.372 37.1246 149.725 36.7384C150.077 36.3522 150.531 36.0332 151.068 35.7813C151.605 35.5462 152.21 35.4287 152.848 35.4287" fill="#222221"/>
<path d="M161.798 35.5132H159.514V43.8415H161.798V35.5132Z" fill="#222221"/>
<path d="M165.122 39.6606C165.122 39.1233 165.223 38.586 165.441 38.0823C165.659 37.5785 165.945 37.1252 166.314 36.739C166.684 36.3528 167.137 36.0506 167.674 35.8155C168.212 35.5804 168.766 35.4629 169.37 35.4629C169.975 35.4629 170.562 35.5804 171.1 35.8323C171.637 36.0674 172.073 36.4032 172.443 36.7894C172.795 37.1924 173.081 37.6457 173.282 38.1494C173.484 38.6532 173.585 39.1737 173.585 39.711C173.585 40.2483 173.484 40.7856 173.266 41.2893C173.047 41.7931 172.762 42.2464 172.392 42.6326C172.023 43.0188 171.57 43.3378 171.032 43.5561C170.495 43.7912 169.924 43.9087 169.32 43.9087C168.715 43.9087 168.144 43.7912 167.607 43.5393C167.07 43.3042 166.633 42.9852 166.264 42.5822C165.894 42.1793 165.626 41.7259 165.407 41.2222C165.206 40.7184 165.105 40.1811 165.105 39.6606M169.337 41.877C169.656 41.877 169.941 41.8099 170.193 41.6923C170.445 41.558 170.646 41.3901 170.797 41.1886C170.948 40.9703 171.066 40.7352 171.133 40.4834C171.217 40.2315 171.251 39.9629 171.251 39.6774C171.251 39.2912 171.184 38.9386 171.049 38.6196C170.915 38.3006 170.697 38.0319 170.394 37.8304C170.092 37.6289 169.74 37.5114 169.337 37.5114C169.018 37.5114 168.732 37.5785 168.497 37.6961C168.245 37.8136 168.044 37.9815 167.909 38.1998C167.758 38.4181 167.641 38.6364 167.573 38.905C167.49 39.1569 167.456 39.4255 167.456 39.711C167.456 39.9964 167.49 40.2651 167.573 40.5337C167.657 40.7856 167.775 41.0207 167.926 41.239C168.077 41.4405 168.279 41.6084 168.531 41.7259C168.782 41.8434 169.051 41.9106 169.37 41.9106" fill="#222221"/>
<path d="M49.0363 58.4324V60.4137H43.1091V52.0854H48.9356V54.0836H45.3927V55.2589H48.4151V57.1059H45.3927V58.4324H49.0363Z" fill="#222221"/>
<path d="M62.4856 54.806C62.4856 54.806 62.4017 54.7556 62.3513 54.722C62.3009 54.6884 62.1834 54.6213 61.9987 54.5373C61.8308 54.4534 61.6461 54.3694 61.4782 54.3023C61.3102 54.2351 61.1088 54.1679 60.8905 54.1176C60.6722 54.0672 60.4707 54.0336 60.2692 54.0336C59.8159 54.0336 59.5976 54.1679 59.5976 54.4366C59.5976 54.5037 59.5976 54.5541 59.6312 54.6045C59.6479 54.6549 59.6815 54.7052 59.7487 54.7388C59.7991 54.7724 59.8494 54.8228 59.8998 54.8564C59.9502 54.8899 60.0341 54.9235 60.1349 54.9571C60.2356 54.9907 60.3364 55.0243 60.4035 55.0411C60.4875 55.0578 60.5882 55.0914 60.7561 55.1418C60.9073 55.1922 61.0416 55.2258 61.1423 55.2593C61.4782 55.3601 61.7636 55.4608 61.9987 55.5616C62.2337 55.6623 62.4688 55.7799 62.6871 55.931C62.9054 56.0653 63.0901 56.2332 63.2244 56.4011C63.3587 56.569 63.4595 56.7873 63.5434 57.0224C63.6274 57.2575 63.661 57.5429 63.661 57.8451C63.661 58.2313 63.5938 58.5839 63.4763 58.8862C63.3587 59.1884 63.1908 59.4403 62.9893 59.6418C62.7878 59.8433 62.5528 60.0112 62.2673 60.1287C61.9819 60.263 61.6964 60.347 61.411 60.3974C61.1255 60.4477 60.8065 60.4813 60.4875 60.4813C59.883 60.4813 59.2618 60.3974 58.6069 60.2127C57.9521 60.028 57.3644 59.7929 56.8774 59.5074L57.8681 57.4925C57.8681 57.4925 57.9689 57.5597 58.0192 57.5933C58.0864 57.6269 58.2207 57.7108 58.439 57.8116C58.6405 57.9123 58.8588 58.013 59.0603 58.097C59.2618 58.181 59.4968 58.2481 59.7823 58.3153C60.0509 58.3824 60.3196 58.416 60.5547 58.416C60.9912 58.416 61.2263 58.2985 61.2263 58.0466C61.2263 57.9627 61.1927 57.8787 61.1423 57.8116C61.0752 57.7444 60.9912 57.6772 60.8569 57.6101C60.7226 57.5429 60.5882 57.4925 60.4707 57.4589C60.3532 57.4254 60.1685 57.375 59.9502 57.291C59.7151 57.2239 59.5304 57.1735 59.3793 57.1231C58.6237 56.8713 58.0864 56.569 57.7674 56.2164C57.4315 55.8638 57.2636 55.3937 57.2636 54.7892C57.2636 54.3358 57.3476 53.9329 57.5155 53.5802C57.6834 53.2276 57.9185 52.9254 58.2039 52.6903C58.4894 52.4553 58.8252 52.2873 59.1946 52.1698C59.564 52.0523 59.9502 51.9851 60.37 51.9851C61.2599 51.9851 62.3009 52.2873 63.4931 52.875L62.5024 54.7724L62.4856 54.806Z" fill="#222221"/>
<path d="M72.9462 58.4324V60.4137H67.019V52.0854H72.8455V54.0836H69.3026V55.2589H72.3418V57.1059H69.3026V58.4324H72.9462Z" fill="#222221"/>
<path d="M76.3718 60.4137V52.0854H80.2002C80.5864 52.0854 80.9725 52.1694 81.3252 52.3373C81.6778 52.5052 81.98 52.7235 82.2151 52.9922C82.4501 53.2608 82.6516 53.5798 82.786 53.9157C82.9203 54.2515 83.0042 54.6041 83.0042 54.9735C83.0042 55.4604 82.9035 55.897 82.6852 56.3168C82.4837 56.7365 82.1815 57.0723 81.8121 57.341L83.5751 60.4137H81.0733L79.6125 57.8615H78.689V60.4137H76.4054H76.3718ZM78.6554 55.8634H80.0994C80.2505 55.8634 80.3849 55.7794 80.5024 55.6115C80.6199 55.4436 80.6703 55.2421 80.6703 54.9735C80.6703 54.7048 80.6031 54.4865 80.4688 54.3186C80.3345 54.1507 80.1834 54.0668 80.0322 54.0668H78.6554V55.8466V55.8634Z" fill="#222221"/>
<path d="M87.924 52.0854L89.5527 57.7776L91.1479 52.0854H93.5658L90.6777 60.4137H88.4109L85.5061 52.0854H87.924Z" fill="#222221"/>
<path d="M98.8209 52.0854H96.5374V60.4137H98.8209V52.0854Z" fill="#222221"/>
<path d="M109.903 58.5503C109.702 59.054 109.332 59.457 108.795 59.7928C108.258 60.1286 107.653 60.3469 106.998 60.4477C107.384 60.8338 107.569 61.2368 107.569 61.6734C107.569 62.0428 107.452 62.3618 107.2 62.6137C106.965 62.8655 106.612 62.9999 106.142 62.9999C105.672 62.9999 105.202 62.8655 104.698 62.5969L105.218 61.4551C105.386 61.6062 105.571 61.6734 105.773 61.6734C105.907 61.6734 106.041 61.6398 106.125 61.5559C106.209 61.4719 106.259 61.3712 106.259 61.22C106.259 60.985 106.108 60.7163 105.806 60.4477C105.269 60.3805 104.782 60.2126 104.312 59.9439C103.842 59.6753 103.455 59.3395 103.136 58.9533C102.817 58.5671 102.565 58.1305 102.398 57.6436C102.213 57.1566 102.129 56.6697 102.129 56.1828C102.129 55.6958 102.23 55.1753 102.431 54.6884C102.633 54.2014 102.901 53.7481 103.254 53.3619C103.607 52.9757 104.06 52.6567 104.597 52.4048C105.151 52.1697 105.739 52.0354 106.394 52.0354C107.183 52.0354 107.871 52.2033 108.459 52.5223C109.064 52.8582 109.5 53.2947 109.802 53.8488L108.056 55.0913C107.972 54.8899 107.871 54.7219 107.737 54.5876C107.603 54.4533 107.468 54.3358 107.301 54.2686C107.133 54.2014 106.981 54.1343 106.814 54.1007C106.662 54.0671 106.495 54.0503 106.327 54.0503C106.008 54.0503 105.739 54.1175 105.487 54.235C105.235 54.3693 105.051 54.5372 104.899 54.7387C104.748 54.957 104.648 55.1921 104.564 55.444C104.48 55.6958 104.446 55.9645 104.446 56.2331C104.446 56.8376 104.614 57.3581 104.967 57.7947C105.319 58.2313 105.773 58.4327 106.36 58.4327C106.578 58.4327 106.797 58.3992 107.015 58.332C107.217 58.2648 107.418 58.1641 107.603 57.9962C107.787 57.8283 107.922 57.6436 108.023 57.4085L109.886 58.5167L109.903 58.5503Z" fill="#222221"/>
<path d="M112.472 56.2495C112.472 55.7122 112.573 55.1749 112.791 54.6711C113.009 54.1674 113.295 53.7141 113.664 53.3279C114.034 52.9417 114.487 52.6394 115.024 52.4044C115.562 52.1693 116.116 52.0518 116.72 52.0518C117.325 52.0518 117.912 52.1693 118.45 52.4212C118.987 52.6562 119.424 52.992 119.793 53.3782C120.146 53.7812 120.431 54.2346 120.632 54.7383C120.834 55.242 120.935 55.7625 120.935 56.2999C120.935 56.8372 120.834 57.3745 120.616 57.8782C120.397 58.3819 120.112 58.8353 119.743 59.2215C119.373 59.6077 118.92 59.9267 118.383 60.145C117.845 60.3801 117.274 60.4976 116.67 60.4976C116.065 60.4976 115.494 60.38 114.957 60.1282C114.42 59.8931 113.983 59.5741 113.614 59.1711C113.244 58.7681 112.976 58.3148 112.758 57.811C112.556 57.3073 112.455 56.77 112.455 56.2495M116.687 58.4659C117.006 58.4659 117.291 58.3987 117.543 58.2812C117.795 58.1469 117.996 57.979 118.147 57.7775C118.299 57.5592 118.416 57.3241 118.483 57.0722C118.567 56.8204 118.601 56.5517 118.601 56.2663C118.601 55.8801 118.534 55.5275 118.399 55.2084C118.265 54.8894 118.047 54.6208 117.744 54.4193C117.442 54.2178 117.09 54.1002 116.687 54.1002C116.368 54.1002 116.082 54.1674 115.847 54.2849C115.595 54.4025 115.394 54.5872 115.259 54.7887C115.108 55.007 114.991 55.2252 114.924 55.4939C114.84 55.7458 114.806 56.0144 114.806 56.2999C114.806 56.5853 114.84 56.854 114.924 57.1226C115.008 57.3745 115.125 57.6095 115.276 57.8278C115.427 58.0293 115.629 58.1972 115.881 58.3148C116.133 58.4323 116.401 58.4995 116.72 58.4995" fill="#222221"/>
<path d="M129.229 54.806C129.229 54.806 129.146 54.7556 129.095 54.722C129.045 54.6884 128.927 54.6213 128.743 54.5373C128.575 54.4534 128.39 54.3694 128.222 54.3023C128.054 54.2351 127.853 54.1679 127.634 54.1176C127.416 54.0672 127.215 54.0336 127.013 54.0336C126.56 54.0336 126.341 54.1679 126.341 54.4366C126.341 54.5037 126.341 54.5541 126.375 54.6045C126.392 54.6549 126.425 54.7052 126.493 54.7388C126.543 54.7724 126.593 54.8228 126.644 54.8564C126.694 54.8899 126.778 54.9235 126.879 54.9571C126.98 54.9907 127.08 55.0243 127.147 55.0411C127.231 55.0578 127.332 55.0914 127.5 55.1418C127.651 55.1922 127.785 55.2258 127.886 55.2593C128.222 55.3601 128.507 55.4608 128.743 55.5616C128.978 55.6623 129.213 55.7799 129.431 55.931C129.649 56.0653 129.834 56.2332 129.968 56.4011C130.103 56.569 130.203 56.7873 130.287 57.0224C130.371 57.2575 130.405 57.5429 130.405 57.8451C130.405 58.2313 130.338 58.5839 130.22 58.8862C130.103 59.1884 129.935 59.4403 129.733 59.6418C129.532 59.8433 129.297 60.0112 129.011 60.1287C128.726 60.263 128.44 60.347 128.155 60.3974C127.869 60.4477 127.55 60.4813 127.231 60.4813C126.627 60.4813 126.006 60.3974 125.351 60.2127C124.696 60.028 124.108 59.7929 123.621 59.5074L124.612 57.4925C124.612 57.4925 124.713 57.5597 124.763 57.5933C124.83 57.6269 124.965 57.7108 125.183 57.8116C125.384 57.9123 125.603 58.013 125.804 58.097C126.006 58.181 126.241 58.2481 126.526 58.3153C126.795 58.3824 127.063 58.416 127.299 58.416C127.735 58.416 127.97 58.2985 127.97 58.0466C127.97 57.9627 127.937 57.8787 127.886 57.8116C127.819 57.7444 127.735 57.6772 127.601 57.6101C127.466 57.5429 127.349 57.4925 127.215 57.4589C127.097 57.4254 126.912 57.375 126.694 57.291C126.459 57.2239 126.274 57.1735 126.123 57.1231C125.368 56.8713 124.83 56.569 124.511 56.2164C124.175 55.8638 124.008 55.3937 124.008 54.7892C124.008 54.3358 124.091 53.9329 124.259 53.5802C124.427 53.2276 124.662 52.9254 124.948 52.6903C125.233 52.4553 125.569 52.2873 125.938 52.1698C126.308 52.0523 126.694 51.9851 127.114 51.9851C128.004 51.9851 129.045 52.2873 130.237 52.875L129.246 54.7724L129.229 54.806Z" fill="#222221"/>
</svg>
