<svg width="200" height="66" viewBox="0 0 200 66" fill="none" xmlns="http://www.w3.org/2000/svg">
<g clip-path="url(#clip0_1_9)">
<path d="M132.742 17.7629H128.09V48.2198H132.742V17.7629Z" fill="white"/>
<path d="M196.383 31.7999C197.835 30.1969 198.704 28.0481 198.704 26.0032C198.704 21.7661 194.487 17.7629 190.027 17.7629H176.384V48.2198H190.992C195.957 48.2198 199.991 44.1213 199.991 39.0871C199.991 36.2277 198.652 33.5676 196.374 31.7999M181.21 34.2434H190.592C193.331 34.3214 195.174 36.349 195.174 39.3037C195.174 42.2584 193.261 44.3639 190.627 44.3639H181.21V34.2434ZM190.018 30.3789H181.21V21.6188H190.018C192.374 21.6188 193.887 23.3431 193.887 26.0032C193.887 28.516 192.287 30.3182 190.018 30.3789Z" fill="white"/>
<path d="M116.178 40.872C113.978 43.1595 111.004 44.4246 107.813 44.4246C102.483 44.4246 97.874 40.846 96.5958 35.7164C96.3697 34.8326 96.248 33.9228 96.248 33.0043C96.248 32.0859 96.361 31.1674 96.5958 30.2749C97.8653 25.1627 102.474 21.5928 107.804 21.5928C110.578 21.5928 113.265 22.5892 115.369 24.3828L116.291 25.18L119.108 22.5806L118.047 21.6014C115.108 18.8807 111.273 17.3817 107.239 17.3817C98.5175 17.3817 91.4221 24.3915 91.4221 33.013C91.4221 41.6345 98.5175 48.6444 107.239 48.6444C111.717 48.6444 115.995 46.7554 118.995 43.4715L119.89 42.4923L117.099 39.9189L116.169 40.8807L116.178 40.872Z" fill="white"/>
<path d="M165.071 40.872C162.871 43.1595 159.897 44.4246 156.706 44.4246C151.376 44.4246 146.759 40.846 145.489 35.7164C145.263 34.8326 145.142 33.9228 145.142 33.0043C145.142 32.0859 145.263 31.1674 145.498 30.2749C146.768 25.1627 151.376 21.5928 156.706 21.5928C159.48 21.5928 162.167 22.5892 164.271 24.3828L165.193 25.18L168.01 22.5806L166.949 21.6014C164.01 18.8807 160.176 17.3817 156.141 17.3817C147.42 17.3817 140.324 24.3915 140.324 33.013C140.324 41.6345 147.42 48.6444 156.141 48.6444C160.619 48.6444 164.897 46.7554 167.897 43.4715L168.784 42.4923L165.993 39.9189L165.062 40.8807L165.071 40.872Z" fill="white"/>
<path d="M70.9882 66L70.0491 65.9567C57.8931 65.4021 46.3632 61.9275 38.3983 56.408L36.7288 55.247L38.6505 53.9126C38.7548 53.8433 38.8592 53.7739 38.9548 53.7046C39.3983 53.384 39.8243 53.0548 40.2417 52.7255C45.4502 48.5664 48.8239 40.8373 48.8413 33.0477C48.8239 25.1367 45.4502 17.4163 40.2417 13.2572C39.833 12.9279 39.3983 12.6073 38.9635 12.2867L36.7549 10.7444L38.4157 9.59197C46.3719 4.08114 57.9018 0.60654 70.0491 0.0519911L70.9882 0.00866699L78.4661 15.0335L77.1097 15.6314C70.4404 18.5947 63.6059 25.6566 64.0928 32.909V33.0043V33.0997C63.6059 40.3521 70.4317 47.4139 77.1097 50.3773L78.4661 50.9752L70.9882 66ZM41.7286 55.1863C48.9457 59.6314 58.8061 62.4734 69.2491 63.08L74.6054 52.3182C67.3884 48.6097 60.7452 41.0886 61.2321 33.0043C60.7452 24.9201 67.3797 17.399 74.6054 13.6904L69.2491 2.92871C58.8061 3.53525 48.9544 6.36865 41.7373 10.8137C41.8416 10.8917 41.9373 10.9697 42.0416 11.0563C47.8935 15.7353 51.6847 24.3222 51.7021 32.935C51.6847 41.6778 47.8935 50.2647 42.0416 54.9437C41.9373 55.0303 41.8329 55.1083 41.7286 55.195" fill="white"/>
<path d="M7.47794 65.9913L0 50.9665L1.35646 50.3687C8.02574 47.4053 14.8602 40.3434 14.3733 33.091V32.9957V32.9004C14.8602 25.6479 8.02574 18.5861 1.35646 15.6227L0 15.0248L7.47794 0L8.41703 0.0433241C20.5817 0.597873 32.1116 4.08113 40.0591 9.59197L41.7286 10.7444L39.807 12.0788C39.7026 12.1481 39.5983 12.2174 39.5026 12.2867C39.0592 12.6073 38.6331 12.9279 38.2157 13.2572C33.0073 17.4163 29.6335 25.1453 29.6161 32.9437C29.6335 40.846 33.0073 48.575 38.2157 52.7341C38.6331 53.0634 39.0592 53.384 39.4939 53.7046L41.7025 55.2469L40.0417 56.3994C32.0856 61.9102 20.5556 65.3848 8.40833 65.9393L7.46924 65.9827L7.47794 65.9913ZM3.8607 52.3096L9.21699 63.0713C19.6513 62.4561 29.5118 59.6227 36.7201 55.1776C36.6245 55.0996 36.5202 55.0217 36.4158 54.9437C30.5639 50.2647 26.7727 41.6778 26.7467 33.065C26.7641 24.3222 30.5552 15.7353 36.4158 11.0563C36.5202 10.9697 36.6245 10.8917 36.7288 10.805C29.5292 6.36865 19.6687 3.53525 9.21699 2.92005L3.8607 13.6818C11.0778 17.3903 17.721 24.9027 17.234 32.9957C17.721 41.0886 11.0865 48.601 3.8607 52.3096Z" fill="white"/>
<path d="M39.2244 56.9886L38.1636 56.2521C38.0418 56.1741 37.9201 56.0874 37.8071 56.0095C37.3288 55.6629 36.868 55.3163 36.4245 54.9523C30.5726 50.2733 26.7728 41.6865 26.7554 33.0736C26.7728 24.3308 30.5639 15.744 36.4245 11.0736C36.8767 10.7097 37.3375 10.3631 37.8158 10.0252C37.9375 9.93856 38.0679 9.84324 38.207 9.7566L39.2505 9.03741L40.3113 9.77392C40.433 9.85191 40.5548 9.93856 40.6678 10.0165C41.1461 10.3631 41.6069 10.7097 42.0591 11.0736C47.911 15.7527 51.7021 24.3395 51.7195 32.961C51.7021 41.6952 47.911 50.282 42.0591 54.961C41.6069 55.3249 41.1461 55.6715 40.6678 56.0181C40.5461 56.1048 40.407 56.2001 40.2765 56.2867L39.2331 57.0059L39.2244 56.9886ZM39.2418 12.4947C38.894 12.7546 38.5549 13.0059 38.2244 13.2745C33.016 17.4336 29.6422 25.1627 29.6248 32.9523C29.6422 40.8633 33.016 48.5924 38.2244 52.7515C38.5549 53.0114 38.8853 53.2714 39.2331 53.5226C39.5809 53.2627 39.92 53.0028 40.2504 52.7428C45.4589 48.5837 48.8327 40.8633 48.8501 33.065C48.8327 25.154 45.4589 17.425 40.2504 13.2659C39.92 13.0059 39.5896 12.746 39.2505 12.4947" fill="white"/>
</g>
<defs>
<clipPath id="clip0_1_9">
<rect width="200" height="66" fill="white"/>
</clipPath>
</defs>
</svg>
