<svg width="92" height="92" viewBox="0 0 92 92" fill="none" xmlns="http://www.w3.org/2000/svg">
<path d="M46.0001 0C20.6361 0 5.27064e-05 20.636 5.27064e-05 46C5.27064e-05 53.92 2.04605 61.708 5.92605 68.58L0.0740526 89.46C-0.117947 90.146 0.0680528 90.882 0.564053 91.392C0.946053 91.786 1.46605 92 2.00005 92C2.16005 92 2.32205 91.98 2.48005 91.942L24.2721 86.544C30.9261 90.116 38.4201 92 46.0001 92C71.3641 92 92.0001 71.364 92.0001 46C92.0001 20.636 71.3641 0 46.0001 0ZM69.1401 62.232C68.1561 64.956 63.4361 67.442 61.1681 67.776C59.1321 68.074 56.5561 68.202 53.7281 67.314C52.0141 66.774 49.8141 66.058 46.9961 64.856C35.1501 59.804 27.4141 48.026 26.8221 47.248C26.2321 46.47 22.0001 40.926 22.0001 35.188C22.0001 29.45 25.0501 26.628 26.1341 25.46C27.2181 24.292 28.4961 24 29.2841 24C30.0721 24 30.8581 24.01 31.5481 24.042C32.2741 24.078 33.2481 23.768 34.2061 26.044C35.1901 28.38 37.5521 34.118 37.8441 34.704C38.1401 35.288 38.3361 35.97 37.9441 36.748C37.5521 37.526 37.3561 38.012 36.7641 38.694C36.1721 39.376 35.5241 40.214 34.9921 40.738C34.4001 41.32 33.7861 41.95 34.4741 43.118C35.1621 44.286 37.5321 48.104 41.0441 51.196C45.5541 55.168 49.3601 56.4 50.5401 56.984C51.7201 57.568 52.4101 57.47 53.0981 56.692C53.7861 55.912 56.0501 53.286 56.8361 52.12C57.6221 50.954 58.4101 51.146 59.4941 51.536C60.5781 51.924 66.3841 54.744 67.5641 55.328C68.7441 55.912 69.5321 56.204 69.8281 56.69C70.1241 57.174 70.1241 59.51 69.1401 62.232Z" fill="white"/>
</svg>
