<svg width="60" height="48" viewBox="0 0 60 48" fill="none" xmlns="http://www.w3.org/2000/svg">
<path d="M57.9475 7.04252C57.2767 4.53419 55.2992 2.55669 52.7909 1.88585C48.2409 0.666688 30 0.666687 30 0.666687C30 0.666687 11.7592 0.666688 7.20921 1.88585C4.70087 2.55669 2.72337 4.53419 2.05254 7.04252C0.833374 11.5925 0.833374 24 0.833374 24C0.833374 24 0.833374 36.4075 2.05254 40.9575C2.72337 43.4659 4.70087 45.4434 7.20921 46.1142C11.7592 47.3334 30 47.3334 30 47.3334C30 47.3334 48.2409 47.3334 52.7909 46.1142C55.3021 45.4434 57.2767 43.4659 57.9475 40.9575C59.1667 36.4075 59.1667 24 59.1667 24C59.1667 24 59.1667 11.5925 57.9475 7.04252ZM24.1667 34.1034V13.8967L41.6667 24L24.1667 34.1034Z" fill="white"/>
</svg>
